<?xml version="1.0" encoding="UTF-8" standalone="no"?>
<!DOCTYPE svg PUBLIC "-//W3C//DTD SVG 1.1//EN" "http://www.w3.org/Graphics/SVG/1.1/DTD/svg11.dtd">
<svg width="100%" height="100%" viewBox="0 0 3190 603" version="1.1" xmlns="http://www.w3.org/2000/svg" xmlns:xlink="http://www.w3.org/1999/xlink" xml:space="preserve" xmlns:serif="http://www.serif.com/" style="fill-rule:evenodd;clip-rule:evenodd;stroke-linejoin:round;stroke-miterlimit:2;">
    <g transform="matrix(1,0,0,1,-111.226,-139.922)">
        <g transform="matrix(1,0,0,1,1,4.54747e-13)">
            <g transform="matrix(1,0,0,1,1153.73,-185.943)">
                <path d="M436.768,871.618C436.768,886.496 430.858,900.765 420.338,911.285C409.817,921.805 395.548,927.716 380.67,927.716L380.668,927.716C365.79,927.716 351.521,921.805 341.001,911.285C330.481,900.765 324.57,886.496 324.57,871.618L324.57,702.367C324.57,577.994 425.545,477.019 549.919,477.019C674.292,477.019 775.267,577.994 775.267,702.367L775.267,927.716L775.267,927.716C713.302,927.716 663.069,877.483 663.069,815.518L663.069,702.367C663.069,640.181 612.368,589.693 549.919,589.693C487.469,589.693 436.768,640.181 436.768,702.367L436.768,871.618Z" style="fill:white;"/>
            </g>
        </g>
        <g transform="matrix(1,0,0,1,1,4.54747e-13)">
            <g transform="matrix(-1,0,0,1,1915.07,-185.943)">
                <path d="M436.768,871.618C436.768,886.496 430.858,900.765 420.338,911.285C409.817,921.805 395.548,927.716 380.67,927.716L380.668,927.716C365.79,927.716 351.521,921.805 341.001,911.285C330.481,900.765 324.57,886.496 324.57,871.618L324.57,702.367C324.57,577.994 425.545,477.019 549.919,477.019C674.292,477.019 775.267,577.994 775.267,702.367L775.267,927.716L775.267,927.716C713.302,927.716 663.069,877.483 663.069,815.518L663.069,702.367C663.069,640.181 612.368,589.693 549.919,589.693C487.469,589.693 436.768,640.181 436.768,702.367L436.768,871.618Z" style="fill:white;"/>
            </g>
        </g>
        <g transform="matrix(1,0,0,1,2068.53,-185.943)">
            <path d="M436.768,815.518C436.768,877.483 386.536,927.716 324.57,927.716L324.57,927.716L324.57,702.367C324.57,577.994 425.545,477.019 549.919,477.019C674.292,477.019 775.267,577.994 775.267,702.367L775.267,927.716L775.267,927.716C713.302,927.716 663.069,877.483 663.069,815.518L663.069,702.367C663.069,640.181 612.368,589.693 549.919,589.693C487.469,589.693 436.768,640.181 436.768,702.367L436.768,815.518Z" style="fill:rgb(155,231,229);"/>
        </g>
        <g transform="matrix(1,0,0,1,1,4.54747e-13)">
            <g transform="matrix(1,0,0,1,1153.73,-185.943)">
                <path d="M436.768,871.618C436.768,886.496 430.858,900.765 420.338,911.285C409.817,921.805 395.548,927.716 380.67,927.716L380.668,927.716C365.79,927.716 351.521,921.805 341.001,911.285C330.481,900.765 324.57,886.496 324.57,871.618L324.57,702.367C324.57,577.994 425.545,477.019 549.919,477.019C674.292,477.019 775.267,577.994 775.267,702.367L775.267,927.716L775.267,927.716C713.302,927.716 663.069,877.483 663.069,815.518L663.069,702.367C663.069,640.181 612.368,589.693 549.919,589.693C487.469,589.693 436.768,640.181 436.768,702.367L436.768,871.618Z" style="fill:rgb(0,166,255);fill-opacity:0.44;"/>
            </g>
        </g>
        <g transform="matrix(1,0,0,1,1,4.54747e-13)">
            <g transform="matrix(-1,0,0,1,1915.07,-185.943)">
                <path d="M436.768,871.618C436.768,886.496 430.858,900.765 420.338,911.285C409.817,921.805 395.548,927.716 380.67,927.716L380.668,927.716C365.79,927.716 351.521,921.805 341.001,911.285C330.481,900.765 324.57,886.496 324.57,871.618L324.57,702.367C324.57,577.994 425.545,477.019 549.919,477.019C674.292,477.019 775.267,577.994 775.267,702.367L775.267,927.716L775.267,927.716C713.302,927.716 663.069,877.483 663.069,815.518L663.069,702.367C663.069,640.181 612.368,589.693 549.919,589.693C487.469,589.693 436.768,640.181 436.768,702.367L436.768,871.618Z" style="fill:rgb(255,0,0);fill-opacity:0.4;"/>
            </g>
        </g>
        <g transform="matrix(1,0,0,1,2525.22,-185.943)">
            <path d="M549.919,477.019C674.292,477.019 775.267,577.994 775.267,702.367C775.267,826.74 674.292,927.716 549.919,927.716C425.545,927.716 324.57,826.74 324.57,702.367C324.57,577.994 425.545,477.019 549.919,477.019ZM549.919,609.885C498.876,609.885 457.436,651.325 457.436,702.367C457.436,753.41 498.876,794.85 549.919,794.85C600.961,794.85 642.401,753.41 642.401,702.367C642.401,651.325 600.961,609.885 549.919,609.885Z" style="fill:rgb(150,240,217);"/>
        </g>
        <g transform="matrix(1,0,0,1,1611.83,-185.943)">
            <path d="M549.919,477.019C674.292,477.019 775.267,577.994 775.267,702.367C775.267,826.74 674.292,927.716 549.919,927.716C425.545,927.716 324.57,826.74 324.57,702.367C324.57,577.994 425.545,477.019 549.919,477.019ZM549.919,609.885C498.876,609.885 457.436,651.325 457.436,702.367C457.436,753.41 498.876,794.85 549.919,794.85C600.961,794.85 642.401,753.41 642.401,702.367C642.401,651.325 600.961,609.885 549.919,609.885Z" style="fill:rgb(150,219,237);"/>
        </g>
        <g transform="matrix(1,0,0,1,-213.344,-184.943)">
            <path d="M465.858,740.953C480.493,772.752 512.645,794.85 549.919,794.85L549.919,795.017L755.372,795.017C720.009,873.234 641.276,927.716 549.919,927.716C425.545,927.716 324.57,826.74 324.57,702.367C324.57,577.994 425.545,477.019 549.919,477.019C674.292,477.019 775.267,577.994 775.267,702.367C775.267,715.522 774.137,728.414 771.97,740.953L465.858,740.953ZM638.453,675.57C626.953,637.578 591.644,609.885 549.919,609.885C508.193,609.885 472.884,637.578 461.385,675.57L638.453,675.57Z" style="fill:rgb(255,188,107);"/>
        </g>
        <g transform="matrix(1,0,0,1,359.535,-185.943)">
            <path d="M465.858,740.953C480.493,772.752 512.645,794.85 549.919,794.85L549.919,795.017L755.372,795.017C720.009,873.234 641.276,927.716 549.919,927.716C425.545,927.716 324.57,826.74 324.57,702.367C324.57,577.994 425.545,477.019 549.919,477.019C674.292,477.019 775.267,577.994 775.267,702.367C775.267,715.522 774.137,728.414 771.97,740.953L465.858,740.953ZM638.453,675.57C626.953,637.578 591.644,609.885 549.919,609.885C508.193,609.885 472.884,637.578 461.385,675.57L638.453,675.57Z" style="fill:rgb(255,151,123);"/>
        </g>
        <g transform="matrix(1,0,0,1,-272.005,-788.924)">
            <path d="M840.928,928.846C900.77,928.846 949.282,977.357 949.282,1037.2L949.282,1530.7L840.928,1530.7L840.928,928.846L840.928,928.846Z" style="fill:rgb(251,170,134);"/>
        </g>
    </g>
</svg>
